<?xml version="1.0" encoding="iso-8859-1"?>
<!-- Generator: Adobe Illustrator 16.0.0, SVG Export Plug-In . SVG Version: 6.00 Build 0)  -->
<!DOCTYPE svg PUBLIC "-//W3C//DTD SVG 1.1//EN" "http://www.w3.org/Graphics/SVG/1.1/DTD/svg11.dtd">
<svg version="1.1" id="Capa_1" xmlns="http://www.w3.org/2000/svg" xmlns:xlink="http://www.w3.org/1999/xlink" x="0px" y="0px"
	 width="32px" height="32px" viewBox="0 0 32 32" style="enable-background:new 0 0 32 32;" xml:space="preserve">
<g>
	<path d="M31.078,11.713c0,0,0.551-0.153,0.514-0.402c-0.238,0.148-0.805-0.334-0.805-0.334s-0.277-1.596-0.298-2.188
		c-0.02-0.593-0.077-1.162-0.077-1.162s0.336,0.393,0.768,0.012c-0.848-0.415-0.795-0.975-0.703-1.335
		c0.092-0.362,0.764-2.917-0.635-4.201c-0.92-0.799-1.43-0.082-1.43-0.082s-0.136-0.237-0.306-0.224
		c-0.17,0.01-0.293,0.193-0.293,0.193s-0.097-0.295-0.25-0.253c-0.151,0.04-0.192,0.186-0.192,0.186s-0.168-0.89-2.025-1.671
		c-1.861-0.781-4.305,0.461-4.816,0.906c-0.514,0.443-0.709,0.582-0.543,1.109c0.061,0.185,0.156,0.252,0.258,0.265
		c-0.388,0.858-0.102,2.232-0.015,2.388c0.09,0.154,0.013,0.512-0.108,0.693c-0.267,0.397-0.562,0.58-0.658,0.846
		c-0.135,0.373,0.58,0.438,0.58,0.438v0.142c0,0-0.229,0.221-0.181,0.394c0.066,0.232,0.525,0.15,0.525,0.15
		s-0.441,0.163-0.421,0.378c0.021,0.214,0.205,0.308,0.205,0.308s-0.426,0.84,0.203,1.027c0.631,0.186,2.153-0.836,2.321,0.061
		c0.119,0.464,0.212,1.217,0.146,1.687c-0.051,0.032-0.104,0.061-0.162,0.07c-4.402-1.066-8.706,4.996-10.876,5.153
		c-1.98,0.144-11.657,1.71-11.657,1.71V32c0,0,21.88,0,22.552,0c0.673,0,0.16-3.27,0.214-5c0.053-1.729,3.596-6.837,4.096-6.891
		C27.509,20.058,27.048,32,27.048,32h2.303c0,0,0.078-13.692,0.025-17.641c0.84,0.295,1.272-0.203,1.242-0.426
		c-0.63,0.394-0.763-0.36-0.763-0.36s1.049,0.327,1.082-0.32c-0.854,0.278-1.056-1.318-1.056-1.318s1.662,1.727,1.972-0.083
		C31.313,12.459,31.078,11.713,31.078,11.713z M17.354,18.996c0.922,1.791-0.306,4.375-0.383,5.295
		c-0.08,0.92-2.829,1.183-4.908,1.023c-1.632-0.123-5.608-3.907-7.6-5.441c1.615-0.438,7.051-1.137,8.319-1.186
		c1.373-0.055,4.415-3.418,5.309-3.141C18.987,15.827,16.328,16.943,17.354,18.996z M26.039,11.121c0-0.784,0.248-1.541,1.209-1.567
		c0.377-0.082,0.565,1.216,0.817,2.458C27.188,11.51,26.173,11.165,26.039,11.121z"/>
</g>
<g>
</g>
<g>
</g>
<g>
</g>
<g>
</g>
<g>
</g>
<g>
</g>
<g>
</g>
<g>
</g>
<g>
</g>
<g>
</g>
<g>
</g>
<g>
</g>
<g>
</g>
<g>
</g>
<g>
</g>
</svg>
